<?xml version="1.0" encoding="UTF-8"?>
<svg width="67px" height="67px" viewBox="0 0 67 67" version="1.1" xmlns="http://www.w3.org/2000/svg" xmlns:xlink="http://www.w3.org/1999/xlink">
    <!-- Generator: Sketch 52.2 (67145) - http://www.bohemiancoding.com/sketch -->
    <title>Combined Shape</title>
    <desc>Created with Sketch.</desc>
    <g id="Page-1" stroke="none" stroke-width="1" fill="none" fill-rule="evenodd">
        <path d="M1.32664146,62.1378246 L62.1378246,1.32664146 C63.1141354,0.350330727 64.6970478,0.350330727 65.6733585,1.32664146 C66.6496693,2.30295219 66.6496693,3.88586463 65.6733585,4.86217536 L4.86217536,65.6733585 C3.88586463,66.6496693 2.30295219,66.6496693 1.32664146,65.6733585 C0.350330727,64.6970478 0.350330727,63.1141354 1.32664146,62.1378246 Z M21.9332432,62.5312229 L61.5312229,22.9332432 C62.5075336,21.9569324 64.0904461,21.9569324 65.0667568,22.9332432 C66.0430676,23.9095539 66.0430676,25.4924664 65.0667568,26.4687771 L25.4687771,66.0667568 C24.4924664,67.0430676 22.9095539,67.0430676 21.9332432,66.0667568 C20.9569324,65.0904461 20.9569324,63.5075336 21.9332432,62.5312229 Z" id="Combined-Shape" fill="#FF245B"></path>
    </g>
</svg>