<?xml version="1.0" encoding="UTF-8"?>
<svg width="107px" height="67px" viewBox="0 0 107 67" version="1.1" xmlns="http://www.w3.org/2000/svg" xmlns:xlink="http://www.w3.org/1999/xlink">
    <!-- Generator: Sketch 52.2 (67145) - http://www.bohemiancoding.com/sketch -->
    <title>Group</title>
    <desc>Created with Sketch.</desc>
    <g id="Page-1" stroke="none" stroke-width="1" fill="none" fill-rule="evenodd">
        <g id="Group" fill="#969696">
            <circle id="Oval" cx="3.5" cy="3.5" r="3.5"></circle>
            <circle id="Oval" cx="3.5" cy="23.5" r="3.5"></circle>
            <circle id="Oval" cx="23.5" cy="3.5" r="3.5"></circle>
            <circle id="Oval" cx="23.5" cy="23.5" r="3.5"></circle>
            <circle id="Oval" cx="3.5" cy="43.5" r="3.5"></circle>
            <circle id="Oval" cx="3.5" cy="63.5" r="3.5"></circle>
            <circle id="Oval" cx="23.5" cy="43.5" r="3.5"></circle>
            <circle id="Oval" cx="23.5" cy="63.5" r="3.5"></circle>
            <circle id="Oval" cx="43.5" cy="3.5" r="3.5"></circle>
            <circle id="Oval" cx="43.5" cy="23.5" r="3.5"></circle>
            <circle id="Oval" cx="63.5" cy="3.5" r="3.5"></circle>
            <circle id="Oval" cx="63.5" cy="23.5" r="3.5"></circle>
            <circle id="Oval" cx="43.5" cy="43.5" r="3.5"></circle>
            <circle id="Oval" cx="43.5" cy="63.5" r="3.5"></circle>
            <circle id="Oval" cx="63.5" cy="43.5" r="3.5"></circle>
            <circle id="Oval" cx="63.5" cy="63.5" r="3.5"></circle>
            <circle id="Oval" cx="83.5" cy="3.5" r="3.5"></circle>
            <circle id="Oval" cx="83.5" cy="23.5" r="3.5"></circle>
            <circle id="Oval" cx="103.5" cy="3.5" r="3.5"></circle>
            <circle id="Oval" cx="103.5" cy="23.5" r="3.5"></circle>
            <circle id="Oval" cx="83.5" cy="43.5" r="3.5"></circle>
            <circle id="Oval" cx="83.5" cy="63.5" r="3.5"></circle>
            <circle id="Oval" cx="103.5" cy="43.5" r="3.5"></circle>
            <circle id="Oval" cx="103.5" cy="63.5" r="3.5"></circle>
        </g>
    </g>
</svg>